<?xml version="1.0" encoding="UTF-8"?>
<svg width="24px" height="24px" viewBox="0 0 24 24" version="1.1" xmlns="http://www.w3.org/2000/svg">
    <path fill="#FFFFFF" d="M12,0c-3.26,0 -3.667,0.015 -4.947,0.072c-4.358,0.2 -6.78,2.618 -6.98,6.98c-0.057,1.28 -0.073,1.687 -0.073,4.948c0,3.26 0.015,3.667 0.072,4.947c0.2,4.358 2.618,6.78 6.98,6.98c1.281,0.058 1.688,0.073 4.948,0.073c3.26,0 3.667,-0.015 4.947,-0.072c4.358,-0.2 6.78,-2.618 6.98,-6.98c0.058,-1.281 0.073,-1.688 0.073,-4.948c0,-3.26 -0.015,-3.667 -0.072,-4.947c-0.2,-4.358 -2.618,-6.78 -6.98,-6.98c-1.28,-0.057 -1.687,-0.073 -4.948,-0.073Zm0,2.163c3.204,0 3.584,0.012 4.85,0.07c3.252,0.148 4.771,1.691 4.919,4.919c0.058,1.265 0.069,1.645 0.069,4.849c0,3.205 -0.012,3.584 -0.069,4.849c-0.149,3.225 -1.664,4.771 -4.919,4.919c-1.266,0.058 -1.644,0.07 -4.85,0.07c-3.204,0 -3.584,-0.012 -4.849,-0.07c-3.26,-0.149 -4.771,-1.699 -4.919,-4.92c-0.058,-1.265 -0.07,-1.644 -0.07,-4.849c0,-3.204 0.013,-3.583 0.07,-4.849c0.149,-3.227 1.664,-4.771 4.919,-4.919c1.266,-0.057 1.645,-0.069 4.849,-0.069Zm0,3.678c-3.405,0 -6.162,2.76 -6.162,6.162c0,3.405 2.76,6.162 6.162,6.162c3.405,0 6.162,-2.76 6.162,-6.162c0,-3.405 -2.76,-6.162 -6.162,-6.162Zm0,10.162c-2.21,0 -4,-1.79 -4,-4c0,-2.209 1.79,-4 4,-4c2.209,0 4,1.79 4,4c0,2.21 -1.79,4 -4,4Zm6.406,-10.845c-0.796,0 -1.441,0.645 -1.441,1.44c0,0.796 0.645,1.441 1.441,1.441c0.795,0 1.44,-0.645 1.44,-1.441c0,-0.795 -0.645,-1.44 -1.44,-1.44Z"/>
</svg> 