<?xml version="1.0" encoding="UTF-8"?>
<svg width="24px" height="24px" viewBox="0 0 24 24" version="1.1" xmlns="http://www.w3.org/2000/svg">
    <path fill="#FFFFFF" d="M20.447,20.452l-3.554,0l0,-5.569c0,-1.328 -0.027,-3.037 -1.852,-3.037c-1.853,0 -2.136,1.445 -2.136,2.939l0,5.667l-3.554,0l0,-11.452l3.414,0l0,1.561l0.046,0c0.477,-0.9 1.637,-1.85 3.37,-1.85c3.601,0 4.267,2.37 4.267,5.455l0,6.286l-0.001,0Zm-15.11,-13.019c-1.144,0 -2.063,-0.926 -2.063,-2.065c0,-1.138 0.92,-2.063 2.063,-2.063c1.14,0 2.064,0.925 2.064,2.063c0,1.139 -0.924,2.065 -2.064,2.065Zm1.782,13.019l-3.568,0l0,-11.452l3.568,0l0,11.452Zm15.881,-20.452l-20,0c-1.658,0 -3,1.343 -3,3l0,18c0,1.657 1.342,3 3,3l20,0c1.657,0 3,-1.343 3,-3l0,-18c0,-1.657 -1.343,-3 -3,-3Z"/>
</svg> 