<?xml version="1.0" encoding="UTF-8"?>
<svg width="24px" height="24px" viewBox="0 0 24 24" version="1.1" xmlns="http://www.w3.org/2000/svg">
    <path d="M20.52 3.449C18.24 1.245 15.24 0 12.045 0 5.463 0 0.102 5.361 0.102 11.943c0 2.096 0.549 4.14 1.595 5.945L0 24l6.335-1.652c1.746 0.947 3.71 1.447 5.71 1.447h0.006c6.585 0 11.946-5.361 11.946-11.943 0-3.195-1.245-6.195-3.477-8.453zM12.045 21.756h-0.006c-1.779 0-3.533-0.477-5.067-1.378l-0.363-0.214-3.765 0.983 1.004-3.665-0.239-0.375c-0.99-1.576-1.516-3.393-1.516-5.264 0-5.454 4.436-9.89 9.896-9.89 2.652 0 5.145 1.035 7.021 2.91 1.875 1.876 2.909 4.369 2.909 7.021 0 5.454-4.436 9.89-9.894 9.89zM17.503 14.233c-0.299-0.149-1.765-0.868-2.04-0.967-0.275-0.099-0.475-0.149-0.675 0.149-0.2 0.298-0.774 0.967-0.95 1.166-0.175 0.199-0.349 0.223-0.648 0.074-0.299-0.149-1.262-0.463-2.4-1.475-0.888-0.788-1.487-1.761-1.662-2.059-0.175-0.298-0.019-0.459 0.13-0.608 0.134-0.133 0.299-0.347 0.449-0.521 0.149-0.174 0.198-0.298 0.298-0.497 0.099-0.199 0.05-0.373-0.025-0.521-0.075-0.149-0.675-1.612-0.925-2.206-0.249-0.579-0.497-0.501-0.675-0.501-0.175 0-0.375-0.025-0.575-0.025-0.2 0-0.525 0.074-0.8 0.373-0.275 0.298-1.049 1.017-1.049 2.481 0 1.463 1.075 2.875 1.224 3.074 0.149 0.199 2.096 3.2 5.076 4.487 0.709 0.306 1.262 0.489 1.694 0.625 0.712 0.227 1.36 0.195 1.871 0.118 0.571-0.085 1.758-0.719 2.006-1.413 0.248-0.694 0.248-1.289 0.173-1.413-0.074-0.124-0.272-0.198-0.571-0.347z" fill="#ffffff"/>
</svg> 